<svg width="18" height="18" viewBox="0 0 18 18" fill="none" xmlns="http://www.w3.org/2000/svg">
<path d="M11.785 3.66211H6.21533C4.6766 3.66211 3.4248 4.91391 3.4248 6.45264V11.5481C3.4248 13.0868 4.6766 14.3386 6.21533 14.3386H11.785C13.3238 14.3386 14.5756 13.0868 14.5756 11.5481V6.45264C14.5756 4.91391 13.3238 3.66211 11.785 3.66211ZM4.40922 6.45264C4.40922 5.45688 5.21957 4.64652 6.21533 4.64652H11.785C12.7808 4.64652 13.5912 5.45688 13.5912 6.45264V11.5481C13.5912 12.5439 12.7808 13.3542 11.785 13.3542H6.21533C5.21957 13.3542 4.40922 12.5439 4.40922 11.5481V6.45264Z" fill="white"/>
<path d="M9.00045 11.5956C10.4313 11.5956 11.5961 10.4315 11.5961 8.99996C11.5961 7.56843 10.432 6.4043 9.00045 6.4043C7.56893 6.4043 6.40479 7.56843 6.40479 8.99996C6.40479 10.4315 7.56893 11.5956 9.00045 11.5956ZM9.00045 7.38934C9.889 7.38934 10.6117 8.11203 10.6117 9.00059C10.6117 9.88914 9.889 10.6118 9.00045 10.6118C8.1119 10.6118 7.3892 9.88914 7.3892 9.00059C7.3892 8.11203 8.1119 7.38934 9.00045 7.38934Z" fill="white"/>
<path d="M11.8361 6.82354C12.2214 6.82354 12.5355 6.51012 12.5355 6.12417C12.5355 5.73823 12.222 5.4248 11.8361 5.4248C11.4501 5.4248 11.1367 5.73823 11.1367 6.12417C11.1367 6.51012 11.4501 6.82354 11.8361 6.82354Z" fill="white"/>
</svg>
