<svg width="24" height="34" viewBox="0 0 24 34" fill="none" xmlns="http://www.w3.org/2000/svg">
<path d="M0 10.625C17.1243 10.625 24 10.625 24 10.625" stroke="#F5FAFF"/>
<path d="M0 18.1875C17.1243 18.1875 24 18.1875 24 18.1875" stroke="#F5FAFF"/>
<path d="M0 14.75C17.1243 14.75 24 14.75 24 14.75" stroke="#F5FAFF"/>
<path d="M0 22.3125C17.1243 22.3125 24 22.3125 24 22.3125" stroke="#F5FAFF"/>
<path d="M0 26.4375C17.1243 26.4375 24 26.4375 24 26.4375" stroke="#F5FAFF"/>
<path d="M11.8679 18.5407C11.3583 18.709 10.9372 18.993 10.6045 19.393C10.2718 19.7927 10.0691 20.2295 9.9963 20.7029C9.92352 21.1763 9.98331 21.6445 10.1756 22.1074C10.368 22.5704 10.7293 22.9438 11.2595 23.2281C11.3843 23.2281 11.4622 23.2806 11.4935 23.3858C11.5246 23.491 11.4778 23.5435 11.3532 23.5435C10.8437 23.4384 10.3966 23.2227 10.0119 22.8966C9.29449 22.2968 8.89942 21.5236 8.82664 20.5766C8.78505 20.1032 8.82924 19.6455 8.95921 19.2036C9.08916 18.7616 9.26852 18.3565 9.49725 17.9883C9.77796 17.5991 10.1107 17.2623 10.4954 16.9783C10.5161 16.9572 10.5759 16.91 10.6747 16.8363C10.7735 16.7626 10.8696 16.6943 10.9632 16.6312C11.0568 16.568 11.1971 16.468 11.3843 16.3312L10.8073 13.522C10.2978 13.9534 9.79356 14.4294 9.29451 14.9502C8.79544 15.471 8.34318 16.0209 7.93769 16.5995C7.53222 17.1783 7.20731 17.7911 6.96297 18.4382C6.71865 19.0853 6.59649 19.7664 6.59649 20.482C6.59649 21.1448 6.73424 21.7682 7.00977 22.3521C7.28529 22.9361 7.65178 23.4438 8.10925 23.8749C8.56671 24.3063 9.09436 24.6457 9.69219 24.8931C10.29 25.1402 10.8956 25.2639 11.5091 25.2639C11.5299 25.2639 11.626 25.2534 11.7976 25.2322C11.9692 25.2113 12.1511 25.185 12.3433 25.1534C12.5358 25.1219 12.7126 25.0876 12.8737 25.0508C13.0347 25.014 13.1154 24.9745 13.1154 24.9325L13.0217 24.4906C12.6163 22.4179 12.2316 20.4346 11.8679 18.5407ZM12.4136 18.4776L13.6925 24.7431C14.4307 24.4589 14.9296 23.9723 15.1896 23.2832C15.4496 22.5941 15.5092 21.8945 15.3689 21.1842C15.2286 20.474 14.8985 19.8453 14.3786 19.2982C13.8588 18.7511 13.2038 18.4776 12.4136 18.4776ZM10.7761 10.0343C11.0983 9.86578 11.3973 9.61344 11.6728 9.27665C11.9484 8.94006 12.203 8.57958 12.437 8.19559C12.6708 7.8116 12.8737 7.41965 13.0452 7.01973C13.2168 6.62001 13.3546 6.25713 13.4585 5.9309C13.5728 5.58376 13.6508 5.1944 13.6925 4.76301C13.734 4.33162 13.6665 3.96874 13.4898 3.67398C13.365 3.41109 13.2012 3.25853 12.9985 3.2163C12.7956 3.17428 12.5929 3.19001 12.3902 3.26371C12.1875 3.3374 11.9952 3.4557 11.8131 3.61881C11.6313 3.78193 11.4986 3.92652 11.4156 4.05279C11.1867 4.46307 10.9865 4.92075 10.8151 5.42582C10.6435 5.9309 10.5265 6.4543 10.4642 6.99623C10.4018 7.53795 10.394 8.05877 10.4408 8.55867C10.4876 9.05837 10.5993 9.5503 10.7761 10.0343ZM10.3082 10.5234C10.1315 9.82913 9.97551 9.14779 9.84034 8.4796C9.70518 7.8116 9.63761 7.12509 9.63761 6.42005C9.63761 5.90461 9.674 5.33899 9.74678 4.72357C9.81954 4.10816 9.95211 3.50828 10.1445 2.92433C10.3368 2.34038 10.6019 1.81698 10.9398 1.35413C11.2778 0.89107 11.7273 0.554484 12.2888 0.343968C12.3408 0.323056 12.3927 0.3125 12.4447 0.3125C12.5175 0.3125 12.6033 0.354524 12.7021 0.43877C12.8009 0.522817 12.9048 0.646497 13.0141 0.809612C13.1231 0.972727 13.2193 1.14102 13.3026 1.31469C13.3856 1.48816 13.448 1.60666 13.4898 1.6698C13.7704 2.20635 13.9757 2.77715 14.1058 3.38201C14.2357 3.98707 14.311 4.58934 14.3319 5.18902C14.3734 6.09402 14.324 6.98826 14.1837 7.87215C14.0434 8.75584 13.76 9.61862 13.3337 10.4603C13.1883 10.7128 13.0401 10.9679 12.8893 11.2257C12.7385 11.4836 12.5592 11.7333 12.3512 11.9753C12.3097 12.0175 12.2343 12.0938 12.1251 12.2042C12.0159 12.3147 11.9041 12.4278 11.7897 12.5435C11.6754 12.6592 11.574 12.7672 11.4857 12.867C11.3973 12.967 11.3532 13.0275 11.3532 13.0486L11.9924 16.205C11.9966 16.2257 12.3123 16.205 12.3123 16.205C12.9224 16.2127 13.5683 16.3127 14.1292 16.5364C14.6698 16.7889 15.1351 17.136 15.525 17.578C15.9148 18.0199 16.2266 18.517 16.4606 19.0693C16.6946 19.6218 16.8115 20.182 16.8115 20.7503C16.8115 21.3183 16.7283 21.897 16.562 22.4862C16.1357 23.6015 15.4547 24.4274 14.5191 24.964C14.415 25.0271 14.2668 25.0982 14.0745 25.1771C13.8822 25.2559 13.8068 25.3796 13.8483 25.5479C14.0979 26.6943 14.2668 27.483 14.3553 27.9152C14.4437 28.3474 14.5086 28.905 14.5502 29.5881C14.5917 30.2414 14.4799 30.8289 14.2148 31.3547C13.9497 31.8825 13.5937 32.3107 13.1465 32.6413C12.6996 32.9739 12.2914 33.1671 11.9224 33.2269C11.5532 33.2846 11.301 33.3125 11.166 33.3125C10.6981 33.3125 10.2406 33.2229 9.79356 33.0436C9.24252 32.8345 8.77986 32.5139 8.40557 32.0817C8.03127 31.6495 7.84413 31.1237 7.84413 30.5043C7.84413 30.1139 7.95589 29.7136 8.17943 29.3033C8.40297 28.8931 8.69669 28.5983 9.06057 28.421C9.46605 28.2099 9.83255 28.1522 10.1601 28.2458C10.4876 28.3414 10.7579 28.5206 10.971 28.7835C11.1841 29.0464 11.3323 29.3651 11.4156 29.7375C11.4986 30.1119 11.4935 30.4605 11.3998 30.7871C11.3064 31.1137 11.1166 31.3906 10.8307 31.6156C10.5447 31.8427 10.1471 31.9443 9.63761 31.9243C9.84554 32.3027 10.1367 32.5417 10.511 32.6413C10.8852 32.7429 11.2699 32.7489 11.6649 32.6652C12.0601 32.5816 12.4317 32.4262 12.7801 32.1992C13.1284 31.9741 13.4014 31.7292 13.5988 31.4663C13.7236 31.2771 13.8173 31.0301 13.8796 30.7254C13.942 30.4187 13.9784 30.102 13.9887 29.7694C13.9991 29.4388 13.9887 29.1799 13.9576 28.9966C13.9263 28.8114 13.8743 28.5246 13.8015 28.1362C13.4898 26.8636 13.2922 26.063 13.2089 25.7363C13.1674 25.6322 13.0556 25.5979 12.8737 25.6347C12.6917 25.6716 12.5384 25.7058 12.4136 25.7363C11.5195 25.8538 10.7709 25.8001 10.1679 25.5796C9.23213 25.327 8.40816 24.8771 7.69597 24.23C6.98377 23.5832 6.41194 22.7993 5.98046 21.8785C5.54899 20.958 5.33325 20.2583 5.33325 19.7795C5.33325 19.301 5.33325 18.9984 5.33325 18.8722C5.33325 18.0199 5.47881 17.2203 5.76993 16.4732C6.32096 15.3053 6.97338 14.2322 7.72716 13.2537C8.48094 12.2753 9.3413 11.3651 10.3082 10.5234Z" fill="#F5FAFF"/>
</svg>
